<svg version="1.2" baseProfile="tiny-ps" viewBox="0 0 512 512" fill="none" xmlns="http://www.w3.org/2000/svg">
<title>pipeguru.ai</title>
<rect width="512" height="512" fill="#155DFC"/>
<path d="M174.545 154.227L256 72.8085L337.455 154.227" stroke="white" stroke-width="25" stroke-linecap="round" stroke-linejoin="round"/>
<path d="M256 72.8085V182.607C256 205.183 250.425 227.41 239.767 247.315C229.11 267.219 213.702 284.186 194.909 296.709C176.117 309.232 160.708 326.199 150.051 346.104C139.394 366.009 133.818 388.235 133.818 410.811V439.191" stroke="white" stroke-width="25" stroke-linecap="round" stroke-linejoin="round"/>
<path d="M256 72.8085V182.607C256 205.183 261.575 227.41 272.233 247.315C282.89 267.219 298.298 284.186 317.091 296.709C335.883 309.232 351.292 326.199 361.949 346.104C372.606 366.009 378.182 388.235 378.182 410.811V439.191" stroke="white" stroke-width="25" stroke-linecap="round" stroke-linejoin="round"/>
</svg>