<svg width="144" height="36" viewBox="0 0 144 36" fill="none" xmlns="http://www.w3.org/2000/svg">
<path fill-rule="evenodd" clip-rule="evenodd" d="M5.37091 4.01748L1.46302 3.37862C1.28274 3.3506 1.125 3.48883 1.125 3.66255V26.2243C1.125 26.3868 1.2527 26.5138 1.41608 26.5138H5.32396C5.48734 26.5138 5.61504 26.3868 5.61504 26.2243V4.30141C5.61504 4.15571 5.50987 4.03429 5.37091 4.01748Z" fill="#050D1A"/>
<path fill-rule="evenodd" clip-rule="evenodd" d="M16.5301 9.4374C14.3367 9.4374 12.7518 10.1734 11.7189 11.6473C11.6964 11.6827 11.6607 11.6995 11.6194 11.6995C11.5612 11.6995 11.5143 11.6585 11.503 11.6006L11.1819 9.68026C11.1593 9.54016 11.0354 9.4374 10.8964 9.4374H7.7829C7.61952 9.4374 7.49182 9.56443 7.49182 9.72696V26.2232C7.49182 26.3857 7.61952 26.5127 7.7829 26.5127H11.3922C11.5556 26.5127 11.6832 26.3857 11.6832 26.2232V17.3278C11.6832 15.9828 12.01 14.9835 12.6579 14.311C13.3058 13.6385 14.1734 13.3135 15.2588 13.3135C16.2334 13.3135 17.0202 13.6086 17.5855 14.1784C18.1808 14.7406 18.4549 15.5756 18.4549 16.6554V26.2232C18.4549 26.3857 18.5827 26.5127 18.746 26.5127H22.3553C22.5187 26.5127 22.6464 26.3857 22.6464 26.2232V16.1435C22.6464 14.0438 22.0811 12.4243 20.915 11.2419C19.7488 10.0594 18.3141 9.4374 16.5301 9.4374Z" fill="#050D1A"/>
<path fill-rule="evenodd" clip-rule="evenodd" d="M34.9906 17.0144V17.0088C34.1794 16.6837 33.34 16.4465 32.5306 16.2261C31.7194 16.0113 31.0152 15.7964 30.448 15.5237C29.8828 15.2566 29.5786 14.9036 29.5786 14.4739C29.5786 14.0686 29.7645 13.7491 30.1212 13.5045C30.4706 13.2616 30.9325 13.157 31.4753 13.157C32.5888 13.157 33.4057 13.6034 33.9296 14.5262C34.0122 14.6719 34.1981 14.7355 34.3447 14.6533L37.383 13.0057C37.5295 12.931 37.5765 12.7498 37.4939 12.6115C36.8873 11.6308 36.0705 10.8837 35.0733 10.3325C33.9878 9.74043 32.7992 9.44531 31.4753 9.44531C29.7138 9.44531 28.2565 9.90296 27.0659 10.8201C25.8772 11.7374 25.3044 13.002 25.3044 14.5897C25.3044 15.6396 25.6012 16.5269 26.1739 17.2292C26.7392 17.9316 27.4452 18.4416 28.2565 18.7666C29.0678 19.0916 29.9072 19.3588 30.7165 19.5735C31.5278 19.7884 32.232 20.0312 32.7992 20.2983C33.3643 20.5655 33.6686 20.9185 33.6686 21.3482C33.6686 22.2653 32.9099 22.7454 31.4226 22.7454C29.9353 22.7454 28.8912 22.1533 28.3617 20.9709C28.2865 20.8027 28.0876 20.728 27.9241 20.8195L24.8388 22.5605C24.7054 22.6352 24.6529 22.7977 24.7224 22.9378C25.9636 25.3326 28.1983 26.5449 31.4264 26.5449C33.293 26.5449 34.8385 26.0873 36.0835 25.2C37.3286 24.3126 37.9502 23.0182 37.9502 21.3781C37.9502 20.2759 37.6535 19.3587 37.0807 18.634C36.5154 17.9092 35.8094 17.317 34.9981 17.0163H34.9925L34.9906 17.0144Z" fill="#050D1A"/>
<path fill-rule="evenodd" clip-rule="evenodd" d="M63.1595 24.1831C63.1821 24.1531 63.2178 24.1364 63.2535 24.1364C63.3117 24.1364 63.3642 24.1774 63.3755 24.241L63.6966 26.2659C63.7191 26.406 63.8431 26.5086 63.9877 26.5086H67.0731C67.2364 26.5086 67.3641 26.3817 67.3641 26.2192V9.73409C67.3641 9.57156 67.2364 9.44452 67.0731 9.44452H63.9877C63.8412 9.44452 63.7191 9.54914 63.6966 9.68739L63.3755 11.7123V11.7066C63.3642 11.7645 63.3172 11.8112 63.2535 11.8112C63.2178 11.8112 63.184 11.7945 63.1595 11.7645C61.9183 10.2328 60.1455 9.43896 57.8902 9.43896C55.6348 9.43896 53.8602 10.2739 52.3147 11.9159C50.7748 13.5579 49.988 15.5753 49.988 17.9757C49.988 20.376 50.7748 22.3897 52.3147 24.0336C53.8602 25.6755 55.7269 26.5106 57.8902 26.5106C60.0536 26.5106 61.8901 25.7447 63.1595 24.1849V24.1831ZM58.7052 22.5298C57.4113 22.5298 56.3259 22.1002 55.4864 21.2652C54.6471 20.4003 54.2152 19.3281 54.2152 17.9813C54.2152 16.6345 54.6471 15.5566 55.4864 14.6973C56.3259 13.8324 57.4113 13.4327 58.7052 13.4327C59.9991 13.4327 61.0845 13.8624 61.9239 14.6973C62.7877 15.5622 63.1952 16.6345 63.1952 17.9813C63.1952 19.3281 62.7633 20.4059 61.9239 21.2652C61.0545 22.1301 59.9991 22.5298 58.7052 22.5298Z" fill="#050D1A"/>
<path fill-rule="evenodd" clip-rule="evenodd" d="M105.188 9.44452H102.102C101.956 9.44452 101.834 9.54914 101.811 9.68739L101.49 11.7123V11.7066C101.479 11.7645 101.431 11.8112 101.368 11.8112C101.332 11.8112 101.299 11.7945 101.274 11.7645C100.033 10.2328 98.2596 9.43896 96.0045 9.43896C93.7492 9.43896 91.9746 10.2739 90.429 11.9159C88.8892 13.5579 88.1023 15.5753 88.1023 17.9757C88.1023 20.376 88.8892 22.3897 90.429 24.0336C91.9746 25.6755 93.8411 26.5106 96.0045 26.5106C98.1679 26.5106 100.005 25.7447 101.274 24.1849C101.297 24.155 101.332 24.1382 101.368 24.1382C101.426 24.1382 101.479 24.1793 101.49 24.2428L101.811 26.2677C101.834 26.4078 101.958 26.5106 102.102 26.5106H105.188C105.35 26.5106 105.478 26.3836 105.478 26.221V9.73409C105.478 9.57156 105.35 9.44452 105.188 9.44452ZM100.036 21.2633C99.1672 22.1282 98.1114 22.528 96.8176 22.528C95.5237 22.528 94.4383 22.0983 93.5989 21.2633C92.7595 20.3984 92.3276 19.3263 92.3276 17.9794C92.3276 16.6325 92.7595 15.5547 93.5989 14.6955C94.4383 13.8306 95.5237 13.4309 96.8176 13.4309C98.1114 13.4309 99.1965 13.8604 100.036 14.6955C100.9 15.5604 101.307 16.6325 101.307 17.9794C101.307 19.3263 100.875 20.4041 100.036 21.2633Z" fill="#050D1A"/>
<path fill-rule="evenodd" clip-rule="evenodd" d="M78.7849 9.42021V9.41455C76.5334 9.41455 74.7607 10.2085 73.5419 11.7645C73.5194 11.7944 73.4837 11.8112 73.448 11.8112C73.3898 11.8112 73.3372 11.7701 73.3316 11.7123L73.0104 9.68725C72.9879 9.54715 72.864 9.44448 72.7194 9.44448H69.634C69.4706 9.44448 69.343 9.57152 69.343 9.73395V31.7559C69.343 31.9015 69.4481 32.0229 69.587 32.0398L73.1964 32.6208C73.3766 32.6506 73.5344 32.5105 73.5344 32.3368V24.9544C73.5344 24.6817 73.8969 24.5491 74.094 24.7396C75.2828 25.8941 76.8357 26.4918 78.7831 26.4918C81.0573 26.4918 82.8413 25.6568 84.3867 24.0148C85.9266 22.3729 86.7134 20.3554 86.7134 17.9569C86.7134 15.5584 85.9266 13.5428 84.3867 11.8971C82.8468 10.2552 80.9746 9.42021 78.7831 9.42021H78.7849ZM81.2224 21.2689C80.3531 22.1337 79.2977 22.5335 78.0038 22.5335C76.7099 22.5335 75.6245 22.1039 74.7851 21.2689C73.9457 20.404 73.5138 19.3318 73.5138 17.985C73.5138 16.6382 73.9457 15.5602 74.7851 14.701C75.6245 13.8361 76.7099 13.4364 78.0038 13.4364C79.2977 13.4364 80.3831 13.866 81.2224 14.701C82.0864 15.5659 82.4938 16.6382 82.4938 17.985C82.4938 19.3318 82.0619 20.4096 81.2224 21.2689Z" fill="#050D1A"/>
<path fill-rule="evenodd" clip-rule="evenodd" d="M42.5859 13.5887C42.5859 13.654 42.6291 13.7082 42.6892 13.7231C42.6948 13.7231 42.6986 13.7231 42.7042 13.7231L44.877 14.2051C45.0159 14.2219 45.1211 14.3433 45.1211 14.4891V20.405C45.1211 20.9766 45.3651 21.4884 45.7577 21.8433C46.1013 22.1535 46.5614 22.344 47.0684 22.344H48.4806C48.6402 22.344 48.7717 22.4729 48.7717 22.6335V26.2238C48.7717 26.3826 48.6402 26.5133 48.4806 26.5133H47.0741C46.4037 26.5133 45.7577 26.405 45.153 26.2051C42.7042 25.3981 40.9258 23.0949 40.9258 20.3976V13.7362C40.9258 13.5775 40.7944 13.4467 40.6329 13.4467H39.1869C39.0273 13.4467 38.8959 13.3159 38.8959 13.1572V9.72754C38.8959 9.56872 39.0273 9.43798 39.1869 9.43798H40.6329C40.7944 9.43798 40.9258 9.30723 40.9258 9.14841V5.39001C40.9258 5.21442 41.0893 5.07619 41.2639 5.10421L44.8432 5.68515C44.9839 5.70197 45.0891 5.82525 45.0891 5.96909V9.15407C45.0891 9.31279 45.2206 9.44353 45.3803 9.44353H48.4806C48.6402 9.44353 48.7717 9.57437 48.7717 9.73495V13.1627C48.7717 13.3216 48.6402 13.4523 48.4806 13.4523H42.723C42.646 13.4523 42.5859 13.5139 42.5859 13.5887Z" fill="#050D1A"/>
<path fill-rule="evenodd" clip-rule="evenodd" d="M141.141 11.8727L141.134 11.8689C139.596 10.2289 137.619 9.42188 135.233 9.42188C133.029 9.42188 131.181 10.0402 129.683 11.2936C129.468 11.473 129.261 11.6635 129.061 11.8689C127.463 13.4886 126.651 15.5302 126.651 17.9568C126.651 18.4032 126.68 18.8385 126.734 19.2606C126.798 19.7501 126.897 20.2226 127.037 20.6766C127.426 21.9581 128.109 23.0975 129.089 24.0745C129.72 24.704 130.435 25.2121 131.232 25.5969C132.479 26.1984 133.925 26.4992 135.56 26.4992C138.702 26.4992 141.744 25.2924 143.212 22.0963C143.289 21.9281 143.184 21.732 142.999 21.7021L139.446 21.1156C139.343 21.0987 139.231 21.1454 139.16 21.2258C138.351 22.212 137.171 22.7053 135.645 22.7053L135.639 22.6884C133.487 22.6884 132.173 22.1037 131.449 20.5832C131.419 20.5197 131.354 20.3572 131.354 20.3572C131.295 20.2059 131.2 20.1069 131.061 20.09L128.815 19.539C128.815 19.539 128.805 19.5371 128.799 19.5371C128.74 19.5222 128.697 19.468 128.697 19.4026C128.697 19.3279 128.756 19.2663 128.833 19.2663H143.088C143.228 19.2663 143.344 19.1672 143.374 19.0346C143.455 18.5807 143.468 18.2687 143.468 17.9605C143.468 15.5359 142.679 13.5165 141.141 11.8727ZM138.895 16.4288H131.346C131.161 16.4288 131.019 16.255 131.072 16.0757C131.166 15.7787 131.281 15.5022 131.419 15.2482C131.676 14.7662 132.017 14.3609 132.437 14.0339V14.0396C133.166 13.4773 134.116 13.1747 135.224 13.1747C136.169 13.1747 137.038 13.4418 137.767 13.9817C138.443 14.4636 138.905 15.1529 139.166 16.0813C139.219 16.2588 139.081 16.4269 138.895 16.4288Z" fill="#050D1A"/>
<path fill-rule="evenodd" clip-rule="evenodd" d="M124.569 9.44452H121.473C121.326 9.44452 121.204 9.54914 121.181 9.68739L120.861 11.7403C120.855 11.7982 120.802 11.8393 120.744 11.8393C120.708 11.8393 120.674 11.8225 120.65 11.7926C119.427 10.2384 117.647 9.44267 115.386 9.44267V9.44823C113.186 9.44823 111.308 10.2833 109.762 11.9252C108.216 13.5672 107.426 15.5847 107.426 17.985C107.426 19.9408 107.952 21.6426 108.983 23.0921C109.151 23.3032 109.332 23.5124 109.526 23.7123C111.077 25.33 113.18 26.1089 115.491 26.1089C117.463 26.1089 118.961 25.5168 120.139 24.3157C120.338 24.1121 120.708 24.2465 120.708 24.5249V24.8387C120.708 26.8861 119.024 28.528 116.984 28.528C115.724 28.528 114.607 27.9023 113.94 26.9383C113.871 26.8394 113.76 26.787 113.644 26.8057L110.004 27.3923C109.824 27.4222 109.713 27.607 109.783 27.7752C110.952 30.594 113.745 32.6189 117.016 32.6189C121.333 32.6189 124.866 29.1445 124.866 24.8312V9.72843C124.866 9.56591 124.738 9.43896 124.575 9.43896L124.569 9.44452ZM112.941 14.7291C113.784 13.8941 114.871 13.4645 116.171 13.4645C117.471 13.4645 118.56 13.8642 119.401 14.7291C120.244 15.5884 120.678 16.6662 120.678 18.013C120.678 19.3598 120.244 20.4321 119.401 21.297C118.558 22.1319 117.471 22.5616 116.171 22.5616C114.871 22.5616 113.813 22.1619 112.941 21.297C112.098 20.4377 111.664 19.3598 111.664 18.013C111.664 16.6662 112.071 15.594 112.941 14.7291Z" fill="#050D1A"/>
</svg>
