<svg viewBox="0 0 71 32" xmlns="http://www.w3.org/2000/svg" role="img" style="width:70px" aria-label="Kit"><path d="M19.4138 13.3155C28.1357 15.0035 30.8429 23.0778 30.9142 31.1987C30.9158 31.3814 30.7683 31.5306 30.5856 31.5306H19.6064C19.4253 31.5306 19.2778 31.3843 19.2768 31.2029C19.2438 24.9024 18.223 19.3424 11.9802 19.1024C11.7939 19.0954 11.6387 19.2445 11.6387 19.431V31.2019C11.6387 31.3834 11.4915 31.5306 11.3101 31.5306H0.32864C0.1472 31.5306 0 31.3837 0 31.2019V1.20928C0 1.02784 0.1472 0.88064 0.32864 0.88064H11.3101C11.4915 0.88064 11.6387 1.02784 11.6387 1.20928V12.4445C11.6387 12.6112 11.7738 12.7462 11.9405 12.7462C12.0726 12.7462 12.1901 12.6602 12.2285 12.5334C15.0573 3.26848 20.3402 0.93888 28.9187 0.8816C29.1008 0.88032 29.2499 1.02816 29.2499 1.21024V12.4176C29.2499 12.599 29.1027 12.7462 28.9213 12.7462H19.4688C19.3101 12.7462 19.1814 12.8749 19.1814 13.0336C19.1814 13.1712 19.279 13.2896 19.4138 13.3155ZM70.8518 29.369C70.8518 29.6125 70.7174 29.8365 70.5018 29.9501C69.4688 30.4934 66.2752 32 62.6218 32C55.1082 32 49.5862 28.888 49.4797 20.3389H49.4771V13.0749C49.4771 12.8934 49.6243 12.7462 49.8058 12.7462H57.8867C58.0458 12.7462 58.1747 12.6173 58.1747 12.4582C58.1747 12.3203 58.0765 12.2022 57.9411 12.1757C51.6186 10.9216 48.6998 7.28192 48.599 1.2096C48.5962 1.02912 48.7411 0.88064 48.9213 0.88064H60.7872C60.9686 0.88064 61.1158 1.02784 61.1158 1.20928V6.3248C61.1158 6.50624 61.263 6.65344 61.4445 6.65344H68.2483C68.4298 6.65344 68.577 6.80064 68.577 6.98208V12.4176C68.577 12.599 68.4298 12.7462 68.2483 12.7462H61.4445C61.263 12.7462 61.1158 12.8934 61.1158 13.0749V18.9341C61.1158 21.0042 62.385 21.6867 64.0726 21.6867C66.7174 21.6867 69.3264 20.495 70.3728 19.9549C70.5917 19.8419 70.8518 20.001 70.8518 20.247V29.369ZM34.0307 31.2019V13.0742C34.0307 12.8928 34.1779 12.7456 34.3594 12.7456H45.3408C45.5222 12.7456 45.6694 12.8928 45.6694 13.0742V31.2019C45.6694 31.3834 45.5222 31.5306 45.3408 31.5306H34.3594C34.1779 31.5306 34.0307 31.3837 34.0307 31.2019ZM33.409 5.58688C33.409 8.67232 35.5878 11.1738 39.7741 11.1738C43.9603 11.1738 46.1392 8.67232 46.1392 5.58688C46.1392 2.50144 43.96 0 39.7741 0C35.5878 0 33.409 2.50144 33.409 5.58688Z" class="fill-soft-black"></path></svg>