<svg xmlns="http://www.w3.org/2000/svg" xmlns:xlink="http://www.w3.org/1999/xlink" viewBox="0 0 120 28.374"><path d="M 0 21.839 L 7.146 21.839 L 7.146 21.079 L 6.61 21.079 C 5.565 21.079 5.314 20.794 5.314 19.752 L 5.314 10.33 C 6.042 9.096 7.022 8.306 8.255 8.306 C 9.805 8.306 10.754 9.443 10.754 11.595 L 10.754 19.754 C 10.754 20.799 10.5 21.081 9.489 21.081 L 8.919 21.081 L 8.919 21.841 L 15.907 21.841 L 15.907 21.081 L 15.402 21.081 C 14.357 21.081 14.106 20.796 14.106 19.754 L 14.106 11.245 C 14.106 10.96 14.106 10.675 14.074 10.392 C 14.769 9.127 15.814 8.306 17.047 8.306 C 18.597 8.306 19.546 9.443 19.546 11.595 L 19.546 19.754 C 19.546 20.799 19.292 21.081 18.281 21.081 L 17.711 21.081 L 17.711 21.841 L 24.699 21.841 L 24.699 21.081 L 24.225 21.081 C 23.149 21.081 22.898 20.796 22.898 19.754 L 22.898 11.245 C 22.898 8.052 21.096 6.281 18.47 6.281 C 16.511 6.281 14.803 7.357 13.885 9.506 C 13.349 7.419 11.767 6.281 9.678 6.281 C 7.812 6.281 6.2 7.292 5.314 9.316 L 5.314 6.66 L 0 6.66 L 0 7.419 L 0.632 7.419 C 1.708 7.419 1.96 7.704 1.96 8.746 L 1.96 19.752 C 1.96 20.796 1.706 21.079 0.632 21.079 L 0 21.079 Z M 28.904 4.13 C 30.041 4.13 30.99 3.181 30.99 2.043 C 30.99 0.905 30.041 -0.043 28.904 -0.043 C 27.766 -0.043 26.817 0.905 26.817 2.043 C 26.817 3.181 27.766 4.13 28.904 4.13 Z M 25.363 21.839 L 32.382 21.839 L 32.382 21.079 L 31.908 21.079 C 30.863 21.079 30.612 20.794 30.612 19.752 L 30.612 6.66 L 25.298 6.66 L 25.298 7.419 L 25.93 7.419 C 27.006 7.419 27.258 7.704 27.258 8.746 L 27.258 19.752 C 27.258 20.796 27.004 21.079 25.93 21.079 L 25.36 21.079 L 25.36 21.839 Z M 37.506 12.922 L 39.531 12.922 C 39.025 12.606 38.836 12.163 38.582 11.341 L 37.822 8.526 C 37.475 7.261 37.19 6.66 35.798 6.66 L 32.89 6.66 L 32.89 7.419 L 33.302 7.419 C 34.155 7.419 34.251 7.735 34.505 8.684 L 35.168 11.152 C 35.516 12.354 36.054 12.922 37.509 12.922 Z M 42.187 12.922 L 44.212 12.922 C 45.666 12.922 46.171 12.352 46.521 11.152 L 47.185 8.684 C 47.439 7.735 47.563 7.419 48.387 7.419 L 48.799 7.419 L 48.799 6.66 L 45.922 6.66 C 44.499 6.66 44.214 7.23 43.898 8.526 L 43.138 11.341 C 42.884 12.194 42.693 12.606 42.187 12.922 Z M 39.531 15.579 L 42.187 15.579 L 42.187 12.922 L 39.531 12.922 Z M 32.89 21.841 L 35.798 21.841 C 37.19 21.841 37.475 21.24 37.822 19.975 L 38.582 17.16 C 38.836 16.338 39.025 15.895 39.531 15.579 L 37.506 15.579 C 36.052 15.579 35.513 16.149 35.166 17.349 L 34.502 19.817 C 34.248 20.765 34.155 21.081 33.3 21.081 L 32.888 21.081 L 32.888 21.841 Z M 45.917 21.841 L 48.795 21.841 L 48.795 21.081 L 48.383 21.081 C 47.561 21.081 47.434 20.765 47.18 19.817 L 46.516 17.349 C 46.169 16.146 45.663 15.579 44.207 15.579 L 42.187 15.579 C 42.693 15.895 42.877 16.307 43.131 17.16 L 43.891 19.975 C 44.207 21.271 44.492 21.841 45.915 21.841 Z M 49.207 28.165 L 56.542 28.165 L 56.542 27.406 L 55.783 27.406 C 54.772 27.406 54.518 27.121 54.518 26.079 L 54.518 20.039 C 55.435 21.4 56.985 22.222 58.818 22.222 C 62.265 22.222 65.016 19.187 65.016 13.938 C 65.016 9.194 62.423 6.286 59.07 6.286 C 57.11 6.286 55.464 7.424 54.515 9.448 L 54.515 6.664 L 49.202 6.664 L 49.202 7.424 L 49.834 7.424 C 50.879 7.424 51.162 7.709 51.162 8.751 L 51.162 26.076 C 51.162 27.121 50.876 27.404 49.834 27.404 L 49.202 27.404 L 49.202 28.163 Z M 57.872 8.243 C 59.927 8.243 61.604 10.172 61.604 13.998 C 61.604 18.171 60.054 20.449 57.936 20.449 C 56.576 20.449 55.375 19.721 54.52 18.456 L 54.52 10.613 C 55.342 9.063 56.513 8.241 57.872 8.241 Z M 70.015 22.157 C 72.071 22.157 73.714 21.177 74.948 18.964 L 74.948 19.311 C 74.948 21.209 76.15 22.03 78.141 22.03 C 78.743 22.03 79.502 21.968 80.008 21.81 L 80.008 21.019 C 79.754 21.081 79.564 21.115 79.375 21.115 C 78.584 21.115 78.331 20.641 78.331 19.881 L 78.331 11.784 C 78.331 8.052 76.244 6.281 72.734 6.281 C 70.394 6.281 68.118 7.357 66.664 8.495 L 67.169 9.381 C 68.688 8.337 70.173 7.738 71.786 7.738 C 73.872 7.738 74.948 8.876 74.948 11.532 L 74.948 12.227 L 71.057 13.746 C 67.517 15.2 66.218 16.561 66.218 18.616 C 66.218 20.672 67.672 22.157 70.013 22.157 Z M 69.541 17.792 C 69.541 16.211 70.458 15.073 72.325 14.251 L 74.95 13.114 L 74.95 18.046 C 73.97 19.407 72.832 20.197 71.599 20.197 C 70.365 20.197 69.543 19.345 69.543 17.795 Z M 80.64 21.841 L 87.851 21.841 L 87.851 21.081 L 87.25 21.081 C 86.205 21.081 85.954 20.796 85.954 19.754 L 85.954 10.361 C 86.682 9.096 87.755 8.306 89.02 8.306 C 90.663 8.306 91.708 9.443 91.708 11.595 L 91.708 19.754 C 91.708 20.799 91.454 21.081 90.443 21.081 L 89.842 21.081 L 89.842 21.841 L 97.019 21.841 L 97.019 21.081 L 96.387 21.081 C 95.311 21.081 95.059 20.796 95.059 19.754 L 95.059 11.245 C 95.059 8.052 93.162 6.281 90.474 6.281 C 88.514 6.281 86.869 7.292 85.951 9.316 L 85.951 6.66 L 80.638 6.66 L 80.638 7.419 L 81.27 7.419 C 82.346 7.419 82.597 7.704 82.597 8.746 L 82.597 19.752 C 82.597 20.796 82.343 21.079 81.27 21.079 L 80.638 21.079 L 80.638 21.839 Z M 105.241 22.219 C 107.328 22.219 109.29 21.271 110.713 20.133 L 110.238 19.438 C 108.973 20.356 107.55 20.765 106.223 20.765 C 102.999 20.765 101.101 18.489 101.101 14.062 L 101.101 13.492 L 111.093 13.492 C 111.031 9.223 108.406 6.315 104.58 6.315 C 100.754 6.315 97.685 9.762 97.685 14.316 C 97.685 19.313 100.531 22.222 105.243 22.222 Z M 104.608 7.103 C 106.506 7.103 107.675 9.158 107.866 12.637 L 101.164 12.637 C 101.449 9.127 102.776 7.103 104.611 7.103 Z M 111.786 21.839 L 119.121 21.839 L 119.121 21.079 L 118.393 21.079 C 117.348 21.079 117.097 20.794 117.097 19.752 L 117.097 0.335 L 111.783 0.335 L 111.783 1.095 L 112.416 1.095 C 113.46 1.095 113.743 1.38 113.743 2.422 L 113.743 19.752 C 113.743 20.796 113.458 21.079 112.416 21.079 L 111.783 21.079 L 111.783 21.839 Z" fill="rgb(27,11,59)"></path></svg>